<svg xmlns="http://www.w3.org/2000/svg" xmlns:xlink="http://www.w3.org/1999/xlink" width="200" height="200" viewBox="0 0 200 200">
  <path id="Path_7342" data-name="Path 7342" d="M93.421,186.841H0V0H76.223A59.019,59.019,0,0,1,130.6,81.979,59.021,59.021,0,0,1,93.421,186.841M14.872,171.97H93.421a44.151,44.151,0,0,0,29.567-76.943,59.149,59.149,0,0,1-46.765,23.026H51.591V68.788h41.83a58.843,58.843,0,0,1,24.327,5.247A44.148,44.148,0,0,0,76.223,14.872H14.872Zm51.591-68.788h9.76a44.24,44.24,0,0,0,34.123-16.15A44.032,44.032,0,0,0,93.421,83.66H66.463Z" fill="white"/>
</svg>
